One of Ozu's most piercing portraits of family strife, Tokyo Twilight follows the parallel paths of two sisters contending with an absent mother, unwanted pregnancy, and marital discord.

__________________________________

Subtitles: English (Embedded), French (.srt), Spanish (.srt)

__________________________________


General
Complete name                    : D:Tokyo Twilight (Yasujiro Ozu, 1957)Tokyo.Twilight.1957.ECLIPSE.DVDRip.x264.mkv
Format                           : Matroska
File size                        : 2.40 GiB
Duration                         : 2h 20mn
Overall bit rate                 : 2 435 Kbps

Video
ID                               : 1
Format                           : AVC
Format/Info                      : Advanced Video Codec
Format profile                   : High@L3.1
Format settings, CABAC           : Yes
Format settings, ReFrames        : 9 frames
Codec ID                         : V_MPEG4/ISO/AVC
Duration                         : 2h 20mn
Bit rate                         : 2 195 Kbps
Width                            : 712 pixels
Height                           : 480 pixels
Display aspect ratio             : 4:3
Frame rate                       : 23.976 fps
Color space                      : YUV
Chroma subsampling               : 4:2:0
Bit depth                        : 8 bits
Scan type                        : Progressive
Bits/(Pixel*Frame)               : 0.268
Stream size                      : 2.16 GiB (90%)
Writing library                  : x264 core 107 r1745 4785e8e
Language                         : Japanese

Audio
ID                               : 3
Format                           : AC-3
Format/Info                      : Audio Coding 3
Mode extension                   : CM (complete main)
Codec ID                         : A_AC3
Duration                         : 2h 20mn
Bit rate mode                    : Constant
Bit rate                         : 192 Kbps
Channel(s)                       : 1 channel
Channel positions                : Front: C
Sampling rate                    : 48.0 KHz
Bit depth                        : 16 bits
Compression mode                 : Lossy
Stream size                      : 193 MiB (8%)
Language                         : Japanese

Text
ID                               : 2
Format                           : UTF-8
Codec ID                         : S_TEXT/UTF8
Codec ID/Info                    : UTF-8 Plain Text
Language                         : English
